<?xml version="1.0" standalone="no"?>
<!DOCTYPE svg PUBLIC "-//W3C//DTD SVG 20010904//EN"
 "http://www.w3.org/TR/2001/REC-SVG-20010904/DTD/svg10.dtd">
<svg version="1.0" xmlns="http://www.w3.org/2000/svg"
 width="450.000000pt" height="289.000000pt" viewBox="0 0 450.000000 289.000000"
 preserveAspectRatio="xMidYMid meet">

<g transform="translate(0.000000,289.000000) scale(0.100000,-0.100000)"
fill="#000000" stroke="none">
<path d="M4083 2471 c-35 -25 -94 -101 -106 -134 -2 -8 -20 0 -48 19 -68 47
-123 65 -203 65 -112 0 -190 -36 -277 -127 -124 -130 -161 -297 -96 -437 29
-64 118 -163 189 -211 l47 -32 -91 -169 c-230 -431 -292 -603 -241 -674 15
-23 19 -24 112 -18 287 17 585 234 716 521 83 183 77 344 -20 475 -25 33 -48
61 -52 61 -5 1 -18 9 -31 20 l-23 19 54 98 c222 406 236 436 223 487 -17 69
-85 86 -153 37z m-354 -439 c58 -38 62 -48 35 -81 -6 -7 -100 68 -123 99 l-24
33 27 -7 c14 -3 52 -23 85 -44z m103 -573 c39 -49 46 -103 20 -155 -25 -49
-95 -115 -153 -144 -52 -27 -119 -51 -119 -43 0 3 44 91 97 195 65 127 102
188 111 186 8 -2 28 -19 44 -39z"/>
<path d="M3015 2091 c-47 -27 -168 -150 -287 -291 l-51 -60 -17 27 c-17 28
-41 79 -103 213 -46 101 -63 115 -141 114 -91 0 -169 -47 -195 -117 -9 -24 -7
-40 15 -95 34 -85 98 -213 163 -327 29 -49 50 -94 47 -100 -2 -6 -41 -62 -87
-126 -233 -318 -271 -391 -224 -425 46 -34 201 -19 248 24 10 9 62 80 115 157
52 77 97 142 99 145 3 3 12 -4 21 -16 10 -12 45 -57 80 -102 35 -44 82 -101
106 -126 41 -44 45 -46 100 -46 88 0 197 64 208 124 7 36 -5 57 -94 168 -46
57 -95 119 -109 138 -55 74 -99 140 -99 146 0 9 124 155 265 314 67 74 129
146 138 160 25 36 21 68 -12 101 -41 41 -115 41 -186 0z m170 -111 c3 -5 1
-10 -4 -10 -6 0 -11 5 -11 10 0 6 2 10 4 10 3 0 8 -4 11 -10z"/>
</g>
</svg>
